<?xml version="1.0" encoding="utf-8"?>
<!-- Generator: Adobe Illustrator 18.1.0, SVG Export Plug-In . SVG Version: 6.00 Build 0)  -->
<svg version="1.1" xmlns="http://www.w3.org/2000/svg" xmlns:xlink="http://www.w3.org/1999/xlink" x="0px" y="0px"
	 viewBox="0 0 612 72" enable-background="new 0 0 612 72" xml:space="preserve">
<g id="work_draft" display="none">
	<g display="inline">
		<path fill="#C1272D" d="M179.4,26.5h1.1v9.9l10.8-9.9h1.4l-7.8,7.1l8.3,10h-1.3l-7.8-9.3l-3.6,3.2v6h-1.1V26.5z"/>
		<path fill="#C1272D" d="M192.3,26.5h1.2l6,12.5l5.7-12.5h1.1L199,42.1c-0.6,1.3-1.5,1.9-2.7,1.9c-0.3,0-0.7,0-1-0.1
			c-0.3-0.1-0.6-0.2-0.8-0.4v-1c0.2,0.2,0.5,0.3,0.9,0.5c0.3,0.1,0.7,0.2,1,0.2c0.5,0,0.9-0.1,1.2-0.4s0.6-0.6,0.8-1.1l0.7-1.5
			L192.3,26.5z"/>
		<path fill="#C1272D" d="M220.5,43.6h-1.1V27.4h-10.9v16.2h-1.1V26.5h13.1V43.6z"/>
		<path fill="#C1272D" d="M235.5,27.8L235.5,27.8l-10.7,15.8h-1.3V26.5h1.1v15.8h0.1l10.6-15.8h1.3v17.1h-1.1V27.8z"/>
	</g>
	<g display="inline">
		<path fill="#C1272D" d="M397.9,24h1.1v7.8h10.9V24h1.1v17.1h-1.1v-8.4h-10.9v8.4h-1.1V24z"/>
		<path fill="#C1272D" d="M419.1,24h1.2l6.8,17.1h-1.1l-2.2-5.5h-8.2l-2.2,5.5h-1.1L419.1,24z M423.4,34.7l-3.7-9.7h0l-3.8,9.7
			H423.4z"/>
		<path fill="#C1272D" d="M428.2,24h11.5v0.9h-10.5v6.9h9.8v0.9h-9.8v7.5h10.6v0.9h-11.6V24z"/>
		<path fill="#C1272D" d="M441.6,24h1.5l6.7,16h0l6.6-16h1.5v17.1H457V25.3h0l-6.5,15.8h-1.1l-6.6-15.8h0v15.8h-1.1V24z"/>
		<path fill="#C1272D" d="M473.1,25.3L473.1,25.3l-10.7,15.8h-1.3V24h1.1v15.8h0.1L472.8,24h1.3v17.1h-1.1V25.3z"/>
	</g>
	<rect x="300.5" y="39.5" display="inline" fill="#C1272D" stroke="#C1272D" stroke-miterlimit="10" width="4" height="4"/>
	<rect x="306.5" y="39.5" display="inline" fill="#C1272D" stroke="#C1272D" stroke-miterlimit="10" width="4" height="4"/>
	<rect x="300.5" y="33.5" display="inline" fill="#C1272D" stroke="#C1272D" stroke-miterlimit="10" width="4" height="4"/>
	<rect x="306.5" y="33.5" display="inline" fill="#C1272D" stroke="#C1272D" stroke-miterlimit="10" width="4" height="4"/>
	<path display="inline" fill="none" stroke="#C1272D" stroke-width="2" stroke-linecap="round" stroke-miterlimit="10" d="
		M306.1,23.5C320.5,35.8,323.5,48,350.5,48H506"/>
	<path display="inline" fill="none" stroke="#C1272D" stroke-width="2" stroke-linecap="round" stroke-miterlimit="10" d="M306,23.5
		C291.5,35.8,288.6,48,261.6,48H106"/>
</g>
<g id="main" display="none">
	<g display="inline">
		<rect x="300.5" y="39.5" fill="#C1272D" stroke="#C1272D" stroke-miterlimit="10" width="4" height="4"/>
		<rect x="306.5" y="39.5" fill="#C1272D" stroke="#C1272D" stroke-miterlimit="10" width="4" height="4"/>
		<rect x="300.5" y="33.5" fill="#C1272D" stroke="#C1272D" stroke-miterlimit="10" width="4" height="4"/>
		<rect x="306.5" y="33.5" fill="#C1272D" stroke="#C1272D" stroke-miterlimit="10" width="4" height="4"/>
		<path fill="none" stroke="#C1272D" stroke-width="2" stroke-linecap="round" stroke-miterlimit="10" d="M306,23.5
			C291.5,35.8,288.6,48,261.6,48"/>
		<path fill="none" stroke="#C1272D" stroke-width="2" stroke-linecap="round" stroke-miterlimit="10" d="M306.6,23.5
			C321,35.8,324,48,351,48"/>
	</g>
</g>
<g id="lines" display="none">
	
		<line display="inline" fill="none" stroke="#C1272D" stroke-width="2" stroke-linecap="round" stroke-miterlimit="10" x1="350" y1="48" x2="506" y2="48"/>
	
		<line display="inline" fill="none" stroke="#C1272D" stroke-width="2" stroke-linecap="round" stroke-miterlimit="10" x1="261" y1="48" x2="105" y2="48"/>
</g>
<g id="text" display="none">
	<g display="inline">
		<path fill="#C1272D" d="M179.4,26.5h1.1v9.9l10.8-9.9h1.4l-7.8,7.1l8.3,10h-1.3l-7.8-9.3l-3.6,3.2v6h-1.1V26.5z"/>
		<path fill="#C1272D" d="M192.3,26.5h1.2l6,12.5l5.7-12.5h1.1L199,42.1c-0.6,1.3-1.5,1.9-2.7,1.9c-0.3,0-0.7,0-1-0.1
			c-0.3-0.1-0.6-0.2-0.8-0.4v-1c0.2,0.2,0.5,0.3,0.9,0.5c0.3,0.1,0.7,0.2,1,0.2c0.5,0,0.9-0.1,1.2-0.4s0.6-0.6,0.8-1.1l0.7-1.5
			L192.3,26.5z"/>
		<path fill="#C1272D" d="M220.5,43.6h-1.1V27.4h-10.9v16.2h-1.1V26.5h13.1V43.6z"/>
		<path fill="#C1272D" d="M235.5,27.8L235.5,27.8l-10.7,15.8h-1.3V26.5h1.1v15.8h0.1l10.6-15.8h1.3v17.1h-1.1V27.8z"/>
	</g>
	<g display="inline">
		<path fill="#C1272D" d="M397.9,24h1.1v7.8h10.9V24h1.1v17.1h-1.1v-8.4h-10.9v8.4h-1.1V24z"/>
		<path fill="#C1272D" d="M419.1,24h1.2l6.8,17.1h-1.1l-2.2-5.5h-8.2l-2.2,5.5h-1.1L419.1,24z M423.4,34.7l-3.7-9.7h0l-3.8,9.7
			H423.4z"/>
		<path fill="#C1272D" d="M428.2,24h11.5v0.9h-10.5v6.9h9.8v0.9h-9.8v7.5h10.6v0.9h-11.6V24z"/>
		<path fill="#C1272D" d="M441.6,24h1.5l6.7,16h0l6.6-16h1.5v17.1H457V25.3h0l-6.5,15.8h-1.1l-6.6-15.8h0v15.8h-1.1V24z"/>
		<path fill="#C1272D" d="M473.1,25.3L473.1,25.3l-10.7,15.8h-1.3V24h1.1v15.8h0.1L472.8,24h1.3v17.1h-1.1V25.3z"/>
	</g>
</g>
<g id="Buy_x5F_overlay" display="none">
	
		<path display="inline" fill="none" stroke="#C1272D" stroke-width="2" stroke-linecap="round" stroke-linejoin="round" stroke-miterlimit="10" d="
		M106,47.5C120.4,35.2,123.4,23,150.4,23H306"/>
	
		<path display="inline" fill="#C1272D" stroke="#C1272D" stroke-width="2" stroke-linecap="round" stroke-linejoin="round" stroke-miterlimit="10" d="
		M306,23.5C291.5,35.8,288.6,48,261.6,48H106l0-0.5C120.4,35.2,123.4,23,150.4,23H306"/>
	<g display="inline">
		<g>
			<path fill="#C1272D" d="M178.8,27.7h1.1v9.9l10.8-9.9h1.4l-7.8,7.1l8.3,10h-1.3l-7.8-9.3l-3.6,3.2v6h-1.1V27.7z"/>
			<g>
				<path fill="#FFF9F8" d="M178.8,27.7l1.1,0l0,0l0,0l0.2,9.9l-0.4-0.2l10.7-10l0.1-0.1l0.2,0l1.4,0l1.1,0l-0.8,0.7l-7.8,7.2l0-0.6
					c2.8,3.3,5.6,6.6,8.3,10l0.7,0.8l-1,0l-1.3,0l-0.2,0l-0.1-0.2l-7.7-9.3l0.6,0l-3.6,3.2l0.1-0.3l-0.1,6l0,0.3l-0.3,0l-1.1,0
					l-0.3,0l0-0.3c0-2.9,0.1-5.7,0.1-8.6L178.8,27.7z M178.8,27.7l0.2,8.6c0.1,2.9,0.1,5.7,0.1,8.6l-0.3-0.3l1.1,0l-0.3,0.3l-0.1-6
					l0-0.2l0.1-0.1l3.5-3.3l0.3-0.3l0.3,0.3l7.8,9.3l-0.4-0.2l1.3,0l-0.4,0.8c-2.8-3.3-5.5-6.7-8.3-10l-0.3-0.3l0.3-0.3l7.9-7.1
					l0.3,0.7l-1.4,0l0.3-0.1L180,37.8l-0.4,0.4l0-0.5l0.2-9.9l0,0L178.8,27.7z"/>
			</g>
		</g>
		<g>
			<path fill="#C1272D" d="M191.7,27.7h1.2l6,12.5l5.7-12.5h1.1l-7.3,15.6c-0.6,1.3-1.5,1.9-2.7,1.9c-0.3,0-0.7,0-1-0.1
				c-0.3-0.1-0.6-0.2-0.8-0.4v-1c0.2,0.2,0.5,0.3,0.9,0.5c0.3,0.1,0.7,0.2,1,0.2c0.5,0,0.9-0.1,1.2-0.4s0.6-0.6,0.8-1.1l0.7-1.5
				L191.7,27.7z"/>
			<g>
				<path fill="#FFF9F8" d="M191.7,27.7l1.2,0l0,0l0,0l3.2,6.2l3.1,6.2l-0.6,0l2.8-6.3l2.8-6.3l0.1-0.3l0.3,0l1.1,0l0.7,0l-0.3,0.7
					c-1.6,3.4-3.1,6.9-4.8,10.3l-2.4,5.1c-0.2,0.4-0.5,0.9-0.8,1.3c-0.4,0.4-0.8,0.7-1.4,0.9c-0.5,0.2-1.1,0.2-1.6,0.1
					c-0.5-0.1-1-0.2-1.5-0.6l-0.2-0.1l0-0.2l0-1l0-0.9l0.7,0.6c0.3,0.3,0.8,0.5,1.2,0.6c0.5,0.1,0.9,0,1.2-0.2
					c0.3-0.2,0.6-0.7,0.8-1.1l0.7-1.4l0,0.3c-1.1-2.3-2.2-4.6-3.2-6.8C193.8,32.3,192.8,30,191.7,27.7z M191.7,27.7
					c1.2,2.2,2.3,4.5,3.5,6.7c1.2,2.2,2.3,4.5,3.5,6.7l0.1,0.1l-0.1,0.1l-0.6,1.5c-0.2,0.5-0.5,1-1,1.4c-0.5,0.4-1.2,0.5-1.8,0.4
					c-0.6-0.1-1.2-0.3-1.6-0.7l0.7-0.3l0,1l-0.2-0.3c0.6,0.4,1.6,0.6,2.3,0.3c0.4-0.1,0.7-0.3,1-0.6c0.3-0.3,0.5-0.7,0.7-1.1
					l2.4-5.2c1.6-3.4,3.2-6.9,4.8-10.3l0.4,0.7l-1.1,0l0.4-0.3l-2.9,6.2l-2.9,6.2l-0.3,0.6l-0.3-0.6l-2.9-6.3l-2.9-6.3l0,0
					L191.7,27.7z"/>
			</g>
		</g>
		<g>
			<path fill="#C1272D" d="M219.9,44.9h-1.1V28.6h-10.9v16.2h-1.1V27.7h13.1V44.9z"/>
			<g>
				<path fill="#FFF9F8" d="M219.9,44.9l-1.1,0l0,0l0,0l-0.2-8.1l-0.1-8.1l0.3,0.3l-10.9,0.1l0.4-0.4l0.1,16.2l0,0.5l-0.5,0l-1.1,0
					l-0.5,0l0-0.5l0.1-17.1l0-0.4l0.4,0c4.4,0,8.7,0.1,13.1,0.1l0.3,0l0,0.3c0,2.9-0.1,5.7-0.1,8.6L219.9,44.9z M219.9,44.9
					l-0.2-8.6c-0.1-2.9-0.1-5.7-0.1-8.6l0.3,0.3c-4.4,0-8.7,0.1-13.1,0.1l0.4-0.4l0.1,17.1l-0.5-0.5l1.1,0l-0.5,0.5l0.1-16.2l0-0.4
					l0.4,0l10.9,0.1l0.3,0l0,0.3l-0.1,8.1l-0.2,8.1l0,0L219.9,44.9z"/>
			</g>
		</g>
		<g>
			<path fill="#C1272D" d="M235,29L235,29l-10.7,15.8H223V27.7h1.1v15.8h0.1l10.6-15.8h1.3v17.1H235V29z"/>
			<g>
				<path fill="#FFF9F8" d="M235,29L235,29L235,29l-5.2,8l-5.2,8l-0.1,0.1l-0.2,0l-1.3,0l-0.3,0l0-0.3l-0.1-8.6l0-8.6l0-0.4l0.4,0
					l1.1,0l0.4,0l0,0.4l0.1,15.8L224,43l0.1,0l-0.4,0.2l10.7-15.8l0.1-0.2l0.2,0l1.3,0l0.4,0l0,0.4c0,5.7-0.1,11.4-0.2,17.1l0,0.3
					l-0.3,0l-1.1,0l-0.3,0l0-0.3l0.1-7.9L235,29z M235,29l0.2,7.9l0.1,7.9l-0.3-0.3l1.1,0l-0.3,0.3c0-5.7-0.1-11.4-0.2-17.1l0.4,0.4
					l-1.3,0l0.4-0.2l-10.6,15.9l-0.1,0.2l-0.3,0l-0.1,0l-0.5,0l0-0.5l0.1-15.8l0.4,0.4l-1.1,0l0.4-0.4l0,8.6l-0.1,8.6l-0.3-0.3
					l1.3,0l-0.3,0.1l5.4-7.8L235,29L235,29L235,29z"/>
			</g>
		</g>
	</g>
</g>
</svg>
