<svg version="1.1" xmlns="http://www.w3.org/2000/svg" xmlns:xlink="http://www.w3.org/1999/xlink" x="0px" y="0px"
	 viewBox="0 0 612 72" enable-background="new 0 0 612 72" xml:space="preserve">
<g id="Layer_1">
	
	<g>
		<path fill="#C1272D" d="M147.3,24h1.1v9.9l10.8-9.9h1.4l-7.8,7.1l8.3,10h-1.3l-7.8-9.3l-3.6,3.2v6h-1.1V24z"/>
		<path fill="#C1272D" d="M160.3,24h1.2l6,12.5l5.7-12.5h1.1l-7.3,15.6c-0.6,1.3-1.5,1.9-2.7,1.9c-0.3,0-0.7,0-1-0.1
			c-0.3-0.1-0.6-0.2-0.8-0.4v-1c0.2,0.2,0.5,0.3,0.9,0.5c0.3,0.1,0.7,0.2,1,0.2c0.5,0,0.9-0.1,1.2-0.4s0.6-0.6,0.8-1.1l0.7-1.5
			L160.3,24z"/>
		<path fill="#C1272D" d="M188.5,41.1h-1.1V24.9h-10.9v16.2h-1.1V24h13.1V41.1z"/>
		<path fill="#C1272D" d="M203.5,25.3L203.5,25.3l-10.7,15.8h-1.3V24h1.1v15.8h0.1L203.2,24h1.3v17.1h-1.1V25.3z"/>
	</g>
	<g>
		<path fill="#C1272D" d="M397.9,24h1.1v7.8h10.9V24h1.1v17.1h-1.1v-8.4h-10.9v8.4h-1.1V24z"/>
		<path fill="#C1272D" d="M419.1,24h1.2l6.8,17.1h-1.1l-2.2-5.5h-8.2l-2.2,5.5h-1.1L419.1,24z M423.4,34.7l-3.7-9.7h0l-3.8,9.7
			H423.4z"/>
		<path fill="#C1272D" d="M428.2,24h11.5v0.9h-10.5v6.9h9.8v0.9h-9.8v7.5h10.6v0.9h-11.6V24z"/>
		<path fill="#C1272D" d="M441.6,24h1.5l6.7,16h0l6.6-16h1.5v17.1H457V25.3h0l-6.5,15.8h-1.1l-6.6-15.8h0v15.8h-1.1V24z"/>
		<path fill="#C1272D" d="M473.1,25.3L473.1,25.3l-10.7,15.8h-1.3V24h1.1v15.8h0.1L472.8,24h1.3v17.1h-1.1V25.3z"/>
	</g>
	<rect x="300.5" y="39.5" fill="#C1272D" stroke="#C1272D" stroke-miterlimit="10" width="4" height="4"/>
	<rect x="306.5" y="39.5" fill="#C1272D" stroke="#C1272D" stroke-miterlimit="10" width="4" height="4"/>
	<rect x="300.5" y="33.5" fill="#C1272D" stroke="#C1272D" stroke-miterlimit="10" width="4" height="4"/>
	<rect x="306.5" y="33.5" fill="#C1272D" stroke="#C1272D" stroke-miterlimit="10" width="4" height="4"/>
	<path id="leftPath" fill="none" stroke="#C1272D" stroke-width="2" stroke-linecap="round" stroke-miterlimit="10" d="M306.1,23.5
		C320.5,35.8,323.5,48,350.5,48H506"/>
	<path id="rightPath" fill="none" stroke="#C1272D" stroke-width="2" stroke-linecap="round" stroke-miterlimit="10" d="M306,23.5
		C291.5,35.8,288.6,48,261.6,48H106"/>
</g>
 <!-- Left circle which will be moved along the left motion path. -->
<circle cx="" cy="" r="2" fill="#FAFAFA">
 <!-- Define the motion path animation -->
    <animateMotion dur="6s" repeatCount="indefinite">
    <mpath xlink:href="#leftPath"/>
    </animateMotion>
</circle>
<!-- Right circle which will be moved along the right motion path. -->
<circle cx="" cy="" r="2" fill="#FAFAFA">
 <!-- Define the motion path animation -->
    <animateMotion dur="6s" repeatCount="indefinite">
    <mpath xlink:href="#rightPath"/>
    </animateMotion>
</circle>
</svg>
