<svg version="1.1" 
     baseProfile="full"
     width="800" height="100"
     viewBox="0 0 80 10"
     xmlns="http://www.w3.org/2000/svg">
	<!-- <rect width="100%" height="100%" fill="red"/> -->
 	 <!-- <g fill="transparent" stroke="black" stroke-width="1" stroke-linecap="round">
	  <path d="M 100 100 H 400 S 450 100, 500 35" />
	  <path d="M 500 35 S 550 100, 600 100 H 900" />
	</g>
	<g fill="black">
	  <rect x="488" y="70" rx="1" ry="1" width="10" height="10" />
	  <rect x="502" y="70" rx="1" ry="1" width="10" height="10" />
	  <rect x="488" y="84" rx="1" ry="1" width="10" height="10" />
	  <rect x="502" y="84" rx="1" ry="1" width="10" height="10" />
	</g> -->
	 <g fill="transparent" stroke="black" stroke-width=".1" stroke-linecap="round">
	  <path d="M 0 8 H 30 S 35 8, 40 2" />
	  <path d="M 40 2 S 45 8, 50 8 H 80" />
	</g>
	<g fill="black" stroke="white" stroke-width=".5">
	  <rect x="38" y="4" rx=".1" ry=".1" width="2" height="2" />
	  <rect x="40" y="4" rx=".1" ry=".1" width="2" height="2" />
	  <rect x="38" y="6" rx=".1" ry=".1" width="2" height="2" />
	  <rect x="40" y="6" rx=".1" ry=".1" width="2" height="2" />
	</g>
</svg>